<svg viewBox="0 0 200 220" xmlns="http://www.w3.org/2000/svg" role="img" aria-label="치즈태비 고양이 몽구">
  <defs>
    <radialGradient id="mFur" cx="50%" cy="40%" r="65%">
      <stop offset="0%" stop-color="#F4B868"/>
      <stop offset="55%" stop-color="#E89A4A"/>
      <stop offset="100%" stop-color="#B5712C"/>
    </radialGradient>
    <radialGradient id="mEar" cx="50%" cy="60%" r="60%">
      <stop offset="0%" stop-color="#F2C2C8"/>
      <stop offset="100%" stop-color="#D88B96"/>
    </radialGradient>
    <linearGradient id="mChest" x1="50%" y1="0%" x2="50%" y2="100%">
      <stop offset="0%" stop-color="#FFF4DE"/>
      <stop offset="100%" stop-color="#F1DFB8"/>
    </linearGradient>
  </defs>

  <!-- 가슴/턱 흰 털 -->
  <path d="M50 165 Q100 200 150 165 L150 220 L50 220 Z" fill="url(#mChest)"/>

  <!-- 귀 -->
  <path d="M48 70 Q42 35 60 30 Q72 38 78 62 Z" fill="url(#mFur)"/>
  <path d="M152 70 Q158 35 140 30 Q128 38 122 62 Z" fill="url(#mFur)"/>
  <path d="M55 65 Q53 45 62 42 Q68 48 71 60 Z" fill="url(#mEar)"/>
  <path d="M145 65 Q147 45 138 42 Q132 48 129 60 Z" fill="url(#mEar)"/>

  <!-- 통통한 둥근 머리 -->
  <ellipse cx="100" cy="108" rx="62" ry="56" fill="url(#mFur)"/>

  <!-- 머리 위 진한 갈색 줄무늬 (M자) -->
  <path d="M75 68 Q80 56 85 68" stroke="#7A4920" stroke-width="3" fill="none" stroke-linecap="round" opacity=".85"/>
  <path d="M88 60 Q92 48 96 60" stroke="#7A4920" stroke-width="3" fill="none" stroke-linecap="round" opacity=".85"/>
  <path d="M104 60 Q108 48 112 60" stroke="#7A4920" stroke-width="3" fill="none" stroke-linecap="round" opacity=".85"/>
  <path d="M115 68 Q120 56 125 68" stroke="#7A4920" stroke-width="3" fill="none" stroke-linecap="round" opacity=".85"/>

  <!-- 옆 줄무늬 -->
  <path d="M50 95 Q56 92 64 96" stroke="#7A4920" stroke-width="2.6" fill="none" stroke-linecap="round" opacity=".75"/>
  <path d="M48 110 Q56 108 64 112" stroke="#7A4920" stroke-width="2.6" fill="none" stroke-linecap="round" opacity=".75"/>
  <path d="M136 96 Q144 92 150 95" stroke="#7A4920" stroke-width="2.6" fill="none" stroke-linecap="round" opacity=".75"/>
  <path d="M136 112 Q144 108 152 110" stroke="#7A4920" stroke-width="2.6" fill="none" stroke-linecap="round" opacity=".75"/>

  <!-- 입 주변 흰 털 (M자) -->
  <ellipse cx="88" cy="138" rx="14" ry="11" fill="#FFF4DE"/>
  <ellipse cx="112" cy="138" rx="14" ry="11" fill="#FFF4DE"/>

  <!-- 시크한 처진 아몬드 눈 -->
  <path d="M70 110 Q78 102 88 108 Q86 118 78 118 Q72 118 70 110 Z" fill="#3B2A1F"/>
  <path d="M112 108 Q122 102 130 110 Q128 118 122 118 Q114 118 112 108 Z" fill="#3B2A1F"/>
  <ellipse cx="79" cy="111" rx="5" ry="5" fill="#A8851E" opacity=".55"/>
  <ellipse cx="121" cy="111" rx="5" ry="5" fill="#A8851E" opacity=".55"/>
  <ellipse cx="79" cy="112" rx="2" ry="3.2" fill="#1B1108"/>
  <ellipse cx="121" cy="112" rx="2" ry="3.2" fill="#1B1108"/>
  <circle cx="80.5" cy="110" r="1.1" fill="#FFF4DE"/>
  <circle cx="122.5" cy="110" r="1.1" fill="#FFF4DE"/>

  <!-- 핑크 코 -->
  <path d="M94 132 L106 132 L100 140 Z" fill="#E66B7A"/>
  <path d="M100 140 L100 148" stroke="#3B2A1F" stroke-width="1.4" stroke-linecap="round"/>

  <!-- 시크한 입 -->
  <path d="M100 148 Q92 153 86 150" stroke="#3B2A1F" stroke-width="1.8" fill="none" stroke-linecap="round"/>
  <path d="M100 148 Q108 153 114 150" stroke="#3B2A1F" stroke-width="1.8" fill="none" stroke-linecap="round"/>

  <!-- 수염 점 -->
  <circle cx="84" cy="138" r=".9" fill="#3B2A1F" opacity=".7"/>
  <circle cx="89" cy="142" r=".9" fill="#3B2A1F" opacity=".7"/>
  <circle cx="111" cy="142" r=".9" fill="#3B2A1F" opacity=".7"/>
  <circle cx="116" cy="138" r=".9" fill="#3B2A1F" opacity=".7"/>
  <!-- 수염 -->
  <path d="M62 134 Q72 137 82 138" stroke="#3B2A1F" stroke-width=".8" fill="none" opacity=".55"/>
  <path d="M62 142 Q72 144 82 144" stroke="#3B2A1F" stroke-width=".8" fill="none" opacity=".55"/>
  <path d="M138 134 Q128 137 118 138" stroke="#3B2A1F" stroke-width=".8" fill="none" opacity=".55"/>
  <path d="M138 142 Q128 144 118 144" stroke="#3B2A1F" stroke-width=".8" fill="none" opacity=".55"/>
</svg>
